<?xml version="1.0" encoding="UTF-8" standalone="no"?>
<svg width="1000px" height="168px" viewBox="0 0 1000 168" version="1.1" xmlns="http://www.w3.org/2000/svg" xmlns:xlink="http://www.w3.org/1999/xlink" xmlns:sketch="http://www.bohemiancoding.com/sketch/ns">
    <!-- Generator: Sketch 3.4.3 (16044) - http://www.bohemiancoding.com/sketch -->
    <title>t7-app__header__logo</title>
    <desc>Created with Sketch.</desc>
    <defs></defs>
    <g id="t7-app__header__logo" stroke="none" stroke-width="1" fill="none" fill-rule="evenodd" sketch:type="MSPage">
        <g sketch:type="MSLayerGroup">
            <path d="M6.51685393,165.842697 C8.76404494,165.842697 10.5617978,164.94382 11.4606742,162.47191 L22.247191,126.741573 L86.9662921,126.741573 L97.9775281,162.47191 C98.6516854,164.94382 100.449438,165.842697 102.47191,165.842697 C105.617978,165.842697 108.988764,163.595506 108.988764,160.898876 C108.988764,160.224719 108.764045,160 108.764045,159.550562 L61.1235955,4.26966292 C60.2247191,1.57303371 57.5280899,0.224719101 54.8314607,0.224719101 C51.9101124,0.224719101 49.4382022,1.57303371 48.5393258,4.26966292 L0.449438202,159.550562 C0.224719101,160 0.224719101,160.449438 0.224719101,160.898876 C0.224719101,164.044944 3.59550562,165.842697 6.51685393,165.842697 L6.51685393,165.842697 L6.51685393,165.842697 Z M25.1685393,116.404494 L54.8314607,20.4494382 L83.8202247,116.404494 L25.1685393,116.404494 L25.1685393,116.404494 Z M209.662921,40.6741573 C209.662921,42.9213483 210.786517,45.3932584 215.280899,45.3932584 C218.876404,45.3932584 220.898876,44.0449438 220.898876,37.9775281 C220.898876,19.1011236 205.168539,1.57303371 176.179775,1.57303371 C151.235955,1.57303371 130.337079,14.3820225 130.337079,48.7640449 L130.337079,120 C130.337079,154.382022 150.786517,167.191011 175.505618,167.191011 C204.719101,167.191011 220.898876,149.438202 220.898876,130.786517 C220.898876,124.494382 218.876404,123.146067 215.05618,123.146067 C211.235955,123.146067 209.88764,125.168539 209.662921,127.865169 C207.865169,139.101124 205.168539,156.404494 176.853933,156.404494 C153.707865,156.404494 141.573034,145.168539 141.573034,120 L141.573034,48.7640449 C141.573034,23.8202247 153.707865,12.3595506 176.179775,12.3595506 C204.044944,12.3595506 208.988764,30.3370787 209.662921,40.6741573 L209.662921,40.6741573 L209.662921,40.6741573 Z M349.438202,27.1910112 L349.438202,160.898876 C349.438202,164.269663 352.134831,165.842697 355.05618,165.842697 C357.752809,165.842697 360.674157,164.269663 360.674157,160.898876 L360.674157,6.96629213 C360.674157,2.92134831 357.977528,1.57303371 355.05618,1.57303371 C351.011236,1.57303371 347.640449,6.96629213 345.617978,10.7865169 L304.269663,91.2359551 L263.146067,10.7865169 C261.123596,6.96629213 257.52809,1.57303371 253.707865,1.57303371 C250.786517,1.57303371 248.089888,2.92134831 248.089888,6.96629213 L248.089888,160.898876 C248.089888,164.269663 251.011236,165.842697 253.707865,165.842697 C256.629213,165.842697 259.325843,164.269663 259.325843,160.898876 L259.325843,26.9662921 L299.101124,103.595506 C300.674157,106.966292 302.022472,108.314607 304.269663,108.314607 C305.393258,108.314607 307.640449,106.741573 309.438202,103.595506 L349.438202,27.1910112 L349.438202,27.1910112 Z M407.41573,12.3595506 L481.573034,12.3595506 C484.494382,12.3595506 486.292135,9.66292135 486.292135,6.74157303 C486.292135,4.26966292 484.94382,1.57303371 481.573034,1.57303371 L401.573034,1.57303371 C398.876404,1.57303371 396.179775,3.14606742 396.179775,6.51685393 L396.179775,160.898876 C396.179775,164.269663 398.876404,165.842697 401.573034,165.842697 L481.573034,165.842697 C484.94382,165.842697 486.292135,163.146067 486.292135,160.674157 C486.292135,157.752809 484.494382,155.05618 481.573034,155.05618 L407.41573,155.05618 L407.41573,88.7640449 L443.146067,88.7640449 C446.516854,88.7640449 447.865169,86.0674157 447.865169,83.8202247 C447.865169,80.8988764 446.067416,78.4269663 443.146067,78.4269663 L407.41573,78.4269663 L407.41573,12.3595506 L407.41573,12.3595506 Z M631.910112,40.6741573 C631.910112,42.9213483 633.033708,45.3932584 637.52809,45.3932584 C641.123596,45.3932584 643.146067,44.0449438 643.146067,37.9775281 C643.146067,19.1011236 627.41573,1.57303371 598.426966,1.57303371 C573.483146,1.57303371 552.58427,14.3820225 552.58427,48.7640449 L552.58427,120 C552.58427,154.382022 573.033708,167.191011 597.752809,167.191011 C626.966292,167.191011 643.146067,149.438202 643.146067,130.786517 C643.146067,124.494382 641.123596,123.146067 637.303371,123.146067 C633.483146,123.146067 632.134831,125.168539 631.910112,127.865169 C630.11236,139.101124 627.41573,156.404494 599.101124,156.404494 C575.955056,156.404494 563.820225,145.168539 563.820225,120 L563.820225,48.7640449 C563.820225,23.8202247 575.955056,12.3595506 598.426966,12.3595506 C626.292135,12.3595506 631.235955,30.3370787 631.910112,40.6741573 L631.910112,40.6741573 L631.910112,40.6741573 Z M713.932584,167.191011 C739.325843,167.191011 759.325843,154.382022 759.325843,120 L759.325843,48.7640449 C759.325843,14.3820225 739.325843,1.57303371 713.932584,1.57303371 C688.314607,1.57303371 668.764045,14.3820225 668.764045,48.7640449 L668.764045,120 C668.764045,154.382022 688.314607,167.191011 713.932584,167.191011 L713.932584,167.191011 L713.932584,167.191011 Z M748.089888,120 C748.089888,144.94382 735.280899,156.404494 713.932584,156.404494 C692.58427,156.404494 680,144.94382 680,120 L680,48.7640449 C680,23.8202247 692.58427,12.3595506 713.932584,12.3595506 C735.280899,12.3595506 748.089888,23.8202247 748.089888,48.7640449 L748.089888,120 L748.089888,120 Z M793.258427,160.898876 C793.258427,164.269663 796.179775,165.842697 798.876404,165.842697 C801.797753,165.842697 804.494382,164.269663 804.494382,160.898876 L804.494382,89.2134831 L835.730337,89.2134831 L871.011236,158.202247 C872.808989,161.573034 875.280899,166.067416 877.977528,166.067416 C881.797753,166.067416 884.044944,163.370787 884.044944,160.449438 C884.044944,159.550562 883.820225,158.651685 883.370787,157.752809 L847.41573,88.0898876 C867.865169,85.1685393 884.044944,73.4831461 884.044944,45.1685393 C884.044944,12.1348315 862.022472,1.57303371 836.629213,1.57303371 L798.202247,1.57303371 C795.05618,1.57303371 793.258427,3.82022472 793.258427,6.29213483 L793.258427,160.898876 L793.258427,160.898876 Z M836.629213,12.3595506 C857.977528,12.3595506 872.808989,21.5730337 872.808989,45.3932584 C872.808989,69.4382022 857.977528,78.8764045 836.629213,78.8764045 L804.494382,78.8764045 L804.494382,12.3595506 L836.629213,12.3595506 L836.629213,12.3595506 Z M909.213483,160.898876 C909.213483,164.269663 912.134831,165.842697 914.831461,165.842697 C917.752809,165.842697 920.449438,164.269663 920.449438,160.898876 L920.449438,98.2022472 L954.606742,98.2022472 C980,98.2022472 1000,85.1685393 1000,51.011236 L1000,48.5393258 C1000,14.3820225 980.224719,1.57303371 954.831461,1.57303371 L914.382022,1.57303371 C911.235955,1.79775281 909.213483,3.82022472 909.213483,6.29213483 L909.213483,160.898876 L909.213483,160.898876 Z M954.606742,12.3595506 C975.955056,12.3595506 988.764045,23.8202247 988.764045,48.7640449 L988.764045,51.2359551 C988.764045,76.1797753 975.955056,87.8651685 954.606742,87.8651685 L920.449438,87.8651685 L920.449438,12.3595506 L954.606742,12.3595506 L954.606742,12.3595506 Z" id="ACME-CORP" fill="#6699CC" sketch:type="MSShapeGroup"></path>
            <path d="M985,167 C993.284271,167 1000,160.284271 1000,152 C1000,143.715729 993.284271,137 985,137 C976.715729,137 970,143.715729 970,152 C970,160.284271 976.715729,167 985,167 Z" id="Oval-1" fill="#CC9966" sketch:type="MSShapeGroup"></path>
        </g>
    </g>
</svg>