<?xml version="1.0" encoding="UTF-8" standalone="no"?>
<svg width="100px" height="82px" viewBox="0 0 100 82" version="1.1" xmlns="http://www.w3.org/2000/svg" xmlns:xlink="http://www.w3.org/1999/xlink" xmlns:sketch="http://www.bohemiancoding.com/sketch/ns">
    <!-- Generator: Sketch 3.4.4 (17249) - http://www.bohemiancoding.com/sketch -->
    <title>t7-d3-tree-diagram__icon-tax-entity</title>
    <desc>Created with Sketch.</desc>
    <defs></defs>
    <g id="t7-d3-tree-diagram__icon-tax-entity" stroke="none" stroke-width="1" fill="none" fill-rule="evenodd" sketch:type="MSPage">
        <g sketch:type="MSLayerGroup" fill="#53A7DB">
            <path d="M77.0438889,64.3611111 C73.9508333,61.6847222 67.0841667,59.1694444 63.3425,57.5208333 C59.5202778,55.8361111 58.9327778,55.4444444 55.78,52.6430556 C53.8605556,50.9375 54.1438889,48.7319444 54.2952778,45.6486111 C54.43,42.9013889 54.9952778,40.3291667 55.7883333,39.3291667 C56.3397222,37.7486111 56.9008333,40.6138889 58.5563889,37.4402778 C59.7216667,35.2111111 60.7813889,32.7861111 61.2494444,30.1916667 C61.6383333,28.0375 62.03,26 59.5869444,25.5222222 C61.4869444,18.5833333 60.2661111,13.15 56.0425,7.76666667 C51.6105556,2.11527778 45.2980556,1.73611111 38.7855556,1.55 C39.2313889,1.14861111 41.3480556,0.913888889 41.7452778,0.555555556 C40.2411111,0.623611111 36.9452778,0.8625 35.5883333,1.25833333 C35.0425,1.41944444 34.5091667,1.60555556 33.9897222,1.81666667 C30.6591667,3.17083333 27.9536111,5.55138889 26.2244444,8.73055556 C23.305,14.1027778 24.1244444,20.5444444 26.2855556,26.4541667 C24.0425,27.2430556 24.0494444,29.0083333 24.4438889,30.8416667 C24.6522222,31.8111111 26.1841667,37.5986111 26.7272222,38.4152778 C28.9258333,41.7208333 29.8480556,39.8819444 29.8480556,39.8819444 C31.6272222,43.2152778 31.0355556,44.8333333 31.2591667,47.7763889 C31.3688889,49.2319444 31.6230556,51.4013889 30.8355556,52.2125 C28.9091667,54.1916667 26.5577778,55.8444444 24.1397222,57.1277778 C19.6619444,59.5041667 15.5425,60.9291667 11.4827778,62.8277778 C3.67166667,66.4819444 -6.09222222,81.9444444 4.96472222,81.9444444 L79.0633333,81.9444444 C87.7175,81.9444444 85.8216667,71.9555556 77.0438889,64.3611111" id="Fill-1" sketch:type="MSShapeGroup"></path>
            <path d="M90.6406944,63.98625 C89.4615278,65.2306944 87.7268056,66.0029167 85.43375,66.3056944 L86.5365278,53.1348611 C87.3809722,53.4168056 88.15875,53.7306944 88.8726389,54.0765278 C89.5865278,54.4223611 90.2073611,54.8334722 90.7379167,55.3084722 C91.2684722,55.7848611 91.6795833,56.3306944 91.97125,56.9473611 C92.2629167,57.5626389 92.40875,58.2820833 92.40875,59.1043056 C92.40875,61.1154167 91.8198611,62.7431944 90.6406944,63.98625 L90.6406944,63.98625 Z M82.3198611,44.0459722 C81.4976389,43.7431944 80.7406944,43.4029167 80.0490278,43.02375 C79.3559722,42.6459722 78.7559722,42.2126389 78.2490278,41.7251389 C77.7393056,41.2390278 77.3448611,40.6820833 77.0643056,40.0543056 C76.7823611,39.4265278 76.6420833,38.7015278 76.6420833,37.8793056 C76.6420833,37.1654167 76.7670833,36.4890278 77.0156944,35.8501389 C77.2643056,35.2126389 77.65875,34.6334722 78.2004167,34.1140278 C78.7406944,33.5945833 79.4323611,33.1556944 80.2768056,32.79875 C81.1198611,32.4418056 82.1351389,32.1876389 83.3254167,32.03625 L82.3198611,44.0459722 Z M98.8643056,52.7904167 C98.1073611,51.4390278 97.1170833,50.3084722 95.89625,49.4001389 C94.6740278,48.4918056 93.3004167,47.7501389 91.7768056,47.1779167 C90.2518056,46.6043056 88.7101389,46.0793056 87.1531944,45.6029167 L88.2893056,32.1654167 C89.1323611,32.3598611 89.8990278,32.6098611 90.5920833,32.91125 C91.28375,33.2154167 91.9170833,33.5126389 92.4893056,33.8043056 C93.0629167,34.0959722 93.57125,34.3445833 94.0143056,34.5501389 C94.4573611,34.7556944 94.8420833,34.8584722 95.1656944,34.8584722 C95.5990278,34.8584722 95.9656944,34.7501389 96.2698611,34.5334722 C96.57125,34.3181944 96.8740278,33.9931944 97.1781944,33.56125 L99.1240278,30.6084722 C97.8906944,29.4404167 96.4420833,28.3918056 94.7768056,27.46125 C93.1115278,26.5320833 91.1323611,26.2056944 88.8406944,25.8376389 L89.3920833,19.7820833 L86.4393056,19.7820833 C85.8129167,19.7820833 85.3045833,19.6668056 84.9156944,20.0820833 C84.5254167,20.4973611 84.30875,20.8070833 84.2656944,21.3306944 L83.9101389,25.3820833 C81.5295833,25.3820833 79.42125,25.7431944 77.58375,26.5459722 C75.7448611,27.34875 74.1990278,28.34875 72.9448611,29.58625 C71.6893056,30.8223611 70.7323611,32.2181944 70.0740278,33.7918056 C69.4129167,35.3654167 69.08375,36.9709722 69.08375,38.6209722 C69.08375,40.8348611 69.4518056,42.6765278 70.1865278,44.1529167 C70.9226389,45.6279167 71.8906944,46.8473611 73.0906944,47.8140278 C74.2906944,48.7793056 75.6420833,49.5543056 77.14625,50.1404167 C78.6476389,50.7265278 80.1670833,51.23625 81.7031944,51.6709722 L80.47125,66.2029167 C79.25875,65.9876389 78.2101389,65.6515278 77.3240278,65.1973611 C76.4365278,64.7431944 75.6476389,64.2890278 74.9559722,63.8348611 C74.2629167,63.3806944 73.6476389,62.98625 73.1073611,62.6515278 C72.5656944,62.3154167 72.0573611,62.14875 71.5823611,62.14875 C71.1920833,62.14875 70.8198611,62.2515278 70.4629167,62.4570833 C70.1059722,62.6626389 69.8184722,62.9279167 69.6031944,63.2529167 L67.1379167,66.9223611 C68.6948611,68.4584722 70.5809722,69.7445833 72.7990278,70.7820833 C75.0156944,71.8209722 77.3893056,72.3640278 79.9198611,72.7098611 L79.3351389,79.5043056 L82.2879167,79.5043056 C82.9143056,79.5043056 83.4226389,79.4418056 83.8115278,79.0195833 C84.2018056,78.59875 84.4170833,78.2126389 84.4615278,77.7154167 L84.8504167,72.9820833 C87.2726389,72.8098611 89.4240278,72.3195833 91.3059722,71.4765278 C93.1879167,70.6334722 94.77125,69.5445833 96.05875,68.1931944 C97.3448611,66.8404167 98.3240278,65.2876389 98.9948611,63.5251389 C99.6643056,61.76125 100.000417,59.8779167 100.000417,57.8654167 C100.000417,55.8320833 99.62125,54.1431944 98.8643056,52.7904167 L98.8643056,52.7904167 Z" id="Fill-4" sketch:type="MSShapeGroup"></path>
        </g>
    </g>
</svg>