<?xml version="1.0" encoding="UTF-8" standalone="no"?>
<svg width="100px" height="88px" viewBox="0 0 100 88" version="1.1" xmlns="http://www.w3.org/2000/svg" xmlns:xlink="http://www.w3.org/1999/xlink" xmlns:sketch="http://www.bohemiancoding.com/sketch/ns">
    <!-- Generator: Sketch 3.4.4 (17249) - http://www.bohemiancoding.com/sketch -->
    <title>t7-d3-tree-diagram__icon-keyboard</title>
    <desc>Created with Sketch.</desc>
    <defs></defs>
    <g id="t7-d3-tree-diagram__icon-keyboard" stroke="none" stroke-width="1" fill="none" fill-rule="evenodd" sketch:type="MSPage">
        <path d="M88.4611111,53.2611111 L80.7666667,53.2611111 L80.7666667,45.5666667 L88.4611111,45.5666667 L88.4611111,53.2611111 Z M88.4611111,76.3388889 L80.7666667,76.3388889 L80.7666667,68.6444444 L88.4611111,68.6444444 L88.4611111,76.3388889 Z M76.9222222,76.3388889 L23.0777778,76.3388889 L23.0777778,68.6444444 L76.9222222,68.6444444 L76.9222222,76.3388889 Z M19.2333333,76.3388889 L11.5388889,76.3388889 L11.5388889,68.6444444 L19.2333333,68.6444444 L19.2333333,76.3388889 Z M23.0777778,57.1111111 L23.0777778,64.8041667 L15.3833333,64.8041667 L15.3833333,57.1111111 L23.0777778,57.1111111 Z M11.5388889,45.5722222 L19.2333333,45.5722222 L19.2333333,53.2666667 L11.5388889,53.2666667 L11.5388889,45.5722222 Z M34.6166667,57.1111111 L34.6166667,64.8041667 L26.9222222,64.8041667 L26.9222222,57.1111111 L34.6166667,57.1111111 Z M23.0777778,45.5722222 L30.7722222,45.5722222 L30.7722222,53.2666667 L23.0777778,53.2666667 L23.0777778,45.5722222 Z M46.1555556,57.1111111 L46.1555556,64.8041667 L38.4611111,64.8041667 L38.4611111,57.1111111 L46.1555556,57.1111111 Z M34.6166667,45.5722222 L42.3111111,45.5722222 L42.3111111,53.2666667 L34.6166667,53.2666667 L34.6166667,45.5722222 Z M57.6944444,57.1111111 L57.6944444,64.8041667 L50,64.8041667 L50,57.1111111 L57.6944444,57.1111111 Z M46.1555556,45.5722222 L53.85,45.5722222 L53.85,53.2666667 L46.1555556,53.2666667 L46.1555556,45.5722222 Z M69.2333333,57.1111111 L69.2333333,64.8041667 L61.5388889,64.8041667 L61.5388889,57.1111111 L69.2333333,57.1111111 Z M57.6944444,45.5722222 L65.3888889,45.5722222 L65.3888889,53.2666667 L57.6944444,53.2666667 L57.6944444,45.5722222 Z M80.7666667,57.1111111 L80.7666667,64.8041667 L73.0736111,64.8041667 L73.0736111,57.1111111 L80.7666667,57.1111111 Z M69.2333333,45.5722222 L76.9277778,45.5722222 L76.9277778,53.2666667 L69.2333333,53.2666667 L69.2333333,45.5722222 Z M88.4611111,34.0333333 L53.2652778,34.0333333 C53.2652778,23.4569444 57.2569444,22.9069444 63.8652778,21.9875 C70.7555556,21.0333333 80.1875,19.7222222 80.1875,3.26527778 C80.1875,1.46111111 78.7263889,0 76.9222222,0 C75.1180556,0 73.6569444,1.46111111 73.6569444,3.26527778 C73.6569444,14.0375 69.6333333,14.5916667 62.9638889,15.5180556 C56.1138889,16.4694444 46.7347222,17.7722222 46.7347222,34.0333333 L11.5388889,34.0333333 C5.16666667,34.0333333 0,39.2 0,45.5722222 L0,76.3388889 C0,82.7069444 5.16666667,87.8777778 11.5388889,87.8777778 L88.4611111,87.8777778 C94.8333333,87.8777778 100,82.7111111 100,76.3388889 L100,45.5722222 C100,39.2 94.8333333,34.0333333 88.4611111,34.0333333 L88.4611111,34.0333333 Z" fill="#979797" sketch:type="MSShapeGroup"></path>
    </g>
</svg>