<?xml version="1.0" encoding="UTF-8" standalone="no"?>
<svg width="100px" height="95px" viewBox="0 0 100 95" version="1.1" xmlns="http://www.w3.org/2000/svg" xmlns:xlink="http://www.w3.org/1999/xlink" xmlns:sketch="http://www.bohemiancoding.com/sketch/ns">
    <!-- Generator: Sketch 3.4.4 (17249) - http://www.bohemiancoding.com/sketch -->
    <title>t7-d3-tree-diagram__icon-superhouse</title>
    <desc>Created with Sketch.</desc>
    <defs>
        <path id="path-1" d="M0,1.06944444 L100,1.06944444 L100,95.8333333 L0,95.8333333 L0,1.06944444 Z"></path>
    </defs>
    <g id="t7-d3-tree-diagram__icon-superhouse" stroke="none" stroke-width="1" fill="none" fill-rule="evenodd" sketch:type="MSPage">
        <g sketch:type="MSLayerGroup" transform="translate(0.000000, -1.000000)">
            <mask id="mask-2" sketch:name="Clip 2" fill="white">
                <use xlink:href="#path-1"></use>
            </mask>
            <g id="Clip-2"></g>
            <path d="M47.9513889,24.2097222 L40.5041667,24.2097222 L40.5041667,39.2027778 L47.9513889,39.2027778 L47.9513889,24.2097222 Z M59.4972222,24.2097222 L52.05,24.2097222 L52.05,39.2027778 L59.4972222,39.2027778 L59.4972222,24.2097222 Z M21.1680556,47.8847222 L21.1680556,59.9305556 L13.7208333,59.9305556 L13.7208333,51.6972222 L21.1680556,47.8847222 Z M78.9305556,47.8847222 L78.9305556,59.9305556 L86.3791667,59.9305556 L86.3791667,51.6972222 L78.9305556,47.8847222 Z M32.7138889,67.4388889 L25.2666667,67.4388889 L25.2666667,80.5 L32.7138889,80.5 L32.7138889,67.4388889 Z M21.1680556,67.4388889 L13.7208333,67.4388889 L13.7208333,80.5 L21.1680556,80.5 L21.1680556,67.4388889 Z M86.3791667,67.4388889 L78.9319444,67.4388889 L78.9319444,80.5 L86.3791667,80.5 L86.3791667,67.4388889 Z M74.8333333,67.4388889 L67.3861111,67.4388889 L67.3861111,80.5 L74.8333333,80.5 L74.8333333,67.4388889 Z M32.7138889,47.1583333 L25.2666667,47.1583333 L25.2666667,59.9305556 L32.7138889,59.9305556 L32.7138889,47.1583333 Z M74.8333333,47.1583333 L67.3861111,47.1583333 L67.3861111,59.9305556 L74.8333333,59.9305556 L74.8333333,47.1583333 Z M59.4972222,47.1583333 L52.05,47.1583333 L52.05,59.9305556 L59.4972222,59.9305556 L59.4972222,47.1583333 Z M47.9513889,47.1583333 L40.5041667,47.1583333 L40.5041667,59.9305556 L47.9513889,59.9305556 L47.9513889,47.1583333 Z M25.9388889,39.1791667 C25.9388889,39.7694444 25.5652778,40.0736111 25.0458333,40.3388889 L5.53611111,50.3277778 L5.53611111,93.7791667 C5.53611111,94.9138889 6.45555556,95.8333333 7.59027778,95.8333333 L40.8430556,95.8333333 L40.8430556,67.4388889 L59.1569444,67.4388889 L59.1569444,95.8333333 L92.4097222,95.8333333 C93.5444444,95.8333333 94.4638889,94.9138889 94.4638889,93.7791667 L94.4638889,50.3277778 L74.9486111,40.3375 C74.4861111,40.1 74.0611111,39.7680556 74.0611111,39.225 L74.0611111,27.9333333 C74.0611111,27.8652778 74.0666667,27.7986111 74.0791667,27.7347222 L50.0027778,10.9152778 L29.8611111,24.9819444 L25.9208333,27.7347222 C25.9319444,27.7986111 25.9388889,27.8652778 25.9388889,27.9333333 L25.9388889,39.1791667 Z" id="Fill-1" fill="#53A7DB" sketch:type="MSShapeGroup" mask="url(#mask-2)"></path>
            <path d="M76.3430556,38.7704167 L95.0416667,48.34125 C96.7166667,49.1981944 98.7694444,48.5329167 99.6263889,46.8579167 C100.481944,45.1815278 99.8180556,43.12875 98.1416667,42.2718056 L76.3430556,31.1148611 L76.3430556,38.7704167 Z M23.6569444,31.1204167 L1.85833333,42.2731944 C0.181944444,43.12875 -0.481944444,45.1829167 0.373611111,46.8579167 C1.23055556,48.5343056 3.28333333,49.1981944 4.95833333,48.3426389 L23.6569444,38.76625 L23.6569444,31.1204167 Z M76.3333333,27.0273611 C77.8763889,28.1051389 80.0013889,27.7273611 81.0791667,26.1843056 C82.1569444,24.64125 81.7791667,22.51625 80.2361111,21.4384722 L74.3027778,17.2940278 L51.9513889,1.68430556 C50.7236111,0.825972222 49.1277778,0.889861111 47.9833333,1.72875 L19.7638889,21.4384722 C18.2208333,22.51625 17.8430556,24.64125 18.9208333,26.1843056 C19.9986111,27.7273611 22.1236111,28.1051389 23.6666667,27.0273611 L50,8.63569444 L70.3986111,22.8815278 L76.3333333,27.0273611 Z" id="Fill-3" fill="#53A7DB" sketch:type="MSShapeGroup" mask="url(#mask-2)"></path>
        </g>
    </g>
</svg>