<?xml version="1.0" encoding="UTF-8" standalone="no"?>
<svg width="60px" height="100px" viewBox="0 0 60 100" version="1.1" xmlns="http://www.w3.org/2000/svg" xmlns:xlink="http://www.w3.org/1999/xlink" xmlns:sketch="http://www.bohemiancoding.com/sketch/ns">
    <!-- Generator: Sketch 3.4.4 (17249) - http://www.bohemiancoding.com/sketch -->
    <title>t7-d3-tree-diagram__icon-lightning</title>
    <desc>Created with Sketch.</desc>
    <defs></defs>
    <g id="t7-d3-tree-diagram__icon-lightning" stroke="none" stroke-width="1" fill="none" fill-rule="evenodd" sketch:type="MSPage">
        <path d="M54.5305905,0 L31.6194794,0 C28.8833683,0 26.0430905,1.78472222 24.8611461,4.24722222 L0.56392384,54.7125 C-0.230520604,56.3583333 -0.180520604,58.1041667 0.681979396,59.4888889 C1.55003495,60.8861111 3.08892384,61.7 4.91114606,61.7388889 L22.8930905,61.9652778 L9.87642384,94.5027778 C9.55559051,95.3152778 8.88336828,97.0166667 10.0819794,98.7638889 C10.6069794,99.5305556 11.5055905,100 12.4319794,100 L12.6417016,100 C14.3986461,100 15.4569794,98.6680556 15.9639238,98.0263889 L58.0264238,45.2097222 C59.8208683,42.9597222 59.0805905,40.9402778 58.8097572,40.3527778 C58.5278127,39.7902778 57.3972572,37.9458333 54.5319794,37.9458333 L41.1472572,37.9458333 L58.662535,7.08611111 C59.5805905,5.45833333 59.6319794,3.69583333 58.7930905,2.2625 C57.9528127,0.822222222 56.3958683,0 54.5305905,0 Z" fill="#979797" sketch:type="MSShapeGroup"></path>
    </g>
</svg>