<?xml version="1.0" encoding="UTF-8" standalone="no"?>
<svg width="100px" height="100px" viewBox="0 0 100 100" version="1.1" xmlns="http://www.w3.org/2000/svg" xmlns:xlink="http://www.w3.org/1999/xlink" xmlns:sketch="http://www.bohemiancoding.com/sketch/ns">
    <!-- Generator: Sketch 3.4.4 (17249) - http://www.bohemiancoding.com/sketch -->
    <title>t7-box--negative--icon</title>
    <desc>Created with Sketch.</desc>
    <defs></defs>
    <g id="t7-box--negative--icon" stroke="none" stroke-width="1" fill="none" fill-rule="evenodd" sketch:type="MSPage">
        <g sketch:type="MSLayerGroup">
            <circle id="Oval-1" fill="#CC6666" sketch:type="MSShapeGroup" cx="50" cy="50" r="50"></circle>
            <path d="M50.2,37.5 C45.7,37.5 42.5,39.4 42.5,42.2 L42.5,80.3 C42.5,82.7 45.7,85.1 50.2,85.1 C54.5,85.1 58,82.7 58,80.3 L58,42.2 C58,39.4 54.5,37.5 50.2,37.5 L50.2,37.5 L50.2,37.5 Z M50.2,14 C45.6,14 42,17.3 42,21.1 C42,24.9 45.6,28.3 50.2,28.3 C54.7,28.3 58.3,24.9 58.3,21.1 C58.3,17.3 54.7,14 50.2,14 L50.2,14 L50.2,14 Z" id="i" fill="#FFFFFF" sketch:type="MSShapeGroup"></path>
        </g>
    </g>
</svg>