<?xml version="1.0" encoding="UTF-8" standalone="no"?>
<svg width="102px" height="102px" viewBox="0 0 102 102" version="1.1" xmlns="http://www.w3.org/2000/svg" xmlns:xlink="http://www.w3.org/1999/xlink" xmlns:sketch="http://www.bohemiancoding.com/sketch/ns">
    <!-- Generator: Sketch 3.4.4 (17249) - http://www.bohemiancoding.com/sketch -->
    <title>t7-d3-tree-diagram__icon-pcr--inactive</title>
    <desc>Created with Sketch.</desc>
    <defs></defs>
    <g id="t7-d3-tree-diagram__icon-pcr--inactive" stroke="none" stroke-width="1" fill="none" fill-rule="evenodd" sketch:type="MSPage">
        <path d="M50.9983751,19.8577491 C60.9068684,19.8577491 69.7444353,24.4614855 75.5146918,31.621314 L88.6512038,18.4945 C79.4852933,7.99997585 66.0162816,1.3278137 50.9983751,1.3278137 C23.47155,1.3278137 1.14280467,23.2991217 1.00010685,51.0074363 L19.5245006,51.0074363 C19.6671984,32.9970318 33.7028451,19.8577491 50.9983751,19.8577491 L50.9983751,19.8577491 Z M80.3975895,62.6628003 L97.1140157,70.789649 C99.6160765,64.8309759 101.000107,58.2876574 101.000107,51.4243079 C101.000107,39.9336699 97.1223282,29.3421666 90.6067181,20.8897452 L77.3427479,34.1537154 C80.5873915,39.1051912 82.4757131,45.0264581 82.4757131,51.3869017 C82.4757131,55.3575032 81.738672,59.1576985 80.3975895,62.6628003 L80.3975895,62.6628003 Z M79.1609675,65.4742244 C73.9947522,75.8177383 63.3242803,82.6575357 50.9982365,82.6575357 C34.5588935,82.6575357 21.0649443,70.4035336 19.6462786,53.7785449 L1.07616617,53.7785449 C2.53085269,80.1014437 24.3248275,101.187471 50.9982365,101.187471 C70.6600566,101.187471 87.6688055,89.9559058 95.8358312,73.4389795 L79.1609675,65.4742244 L79.1609675,65.4742244 Z" stroke="#FFFFFF" fill="#C3C3C3" sketch:type="MSShapeGroup"></path>
    </g>
</svg>