<?xml version="1.0" encoding="UTF-8" standalone="no"?>
<svg width="100px" height="80px" viewBox="0 0 100 80" version="1.1" xmlns="http://www.w3.org/2000/svg" xmlns:xlink="http://www.w3.org/1999/xlink" xmlns:sketch="http://www.bohemiancoding.com/sketch/ns">
    <!-- Generator: Sketch 3.4.4 (17249) - http://www.bohemiancoding.com/sketch -->
    <title>t7-d3-tree-diagram__icon-people</title>
    <desc>Created with Sketch.</desc>
    <defs></defs>
    <g id="t7-d3-tree-diagram__icon-people" stroke="none" stroke-width="1" fill="none" fill-rule="evenodd" sketch:type="MSPage">
        <g sketch:type="MSLayerGroup" transform="translate(0.000000, -1.000000)" fill="#979797">
            <path d="M74.6658333,64.4473611 C71.6686111,61.8543056 65.0130556,59.4154167 61.3880556,57.8181944 C57.6825,56.18625 57.1130556,54.3945833 54.0588889,51.6806944 C52.1977778,50.0279167 52.4727778,47.8904167 52.6186111,44.9015278 C52.7505556,42.2390278 53.2977778,39.7459722 54.0658333,38.7765278 C54.6005556,37.2445833 55.145,40.0209722 56.7491667,36.9473611 C57.8783333,34.78625 58.9061111,32.43625 59.3588889,29.9209722 C59.7352778,27.8348611 60.1158333,25.8598611 57.7477778,25.3959722 C59.5880556,18.6709722 58.4047222,13.4056944 54.3130556,8.18902778 C50.0172222,2.71263889 43.9005556,2.34458333 37.5880556,2.16402778 C38.02,1.77375 40.0713889,1.54736111 40.4561111,1.20013889 C38.9991667,1.26541667 35.8047222,1.49736111 34.4908333,1.88208333 C33.9602778,2.03763889 33.4436111,2.21819444 32.9408333,2.42236111 C29.7130556,3.73486111 27.0908333,6.04180556 25.4158333,9.12236111 C22.5852778,14.3293056 23.3797222,20.5723611 25.4741667,26.3001389 C23.3005556,27.0640278 23.3075,28.77375 23.6894444,30.5515278 C23.8908333,31.4904167 25.3755556,37.1001389 25.9019444,37.8918056 C28.0338889,41.0945833 28.9269444,39.3126389 28.9269444,39.3126389 C30.6519444,42.5431944 30.0783333,44.11125 30.2936111,46.9640278 C30.4005556,48.37375 30.6463889,50.4765278 29.8838889,51.2626389 C28.0172222,53.1806944 25.7380556,56.1931944 23.395,57.4376389 C19.0561111,59.7404167 15.0630556,61.1209722 11.1283333,62.96125 C3.55888889,66.5029167 -5.90361111,80.0765278 4.81166667,80.0765278 L76.6227778,80.0765278 C85.0088889,80.0765278 83.1727778,71.8084722 74.6658333,64.4473611" id="Fill-1" sketch:type="MSShapeGroup"></path>
            <path d="M93.3997222,65.0472222 C90.7233333,62.7319444 84.7816667,60.4069444 81.5455556,58.9819444 C78.2372222,57.5236111 77.7288889,57.1111111 75.0011111,54.6875 C73.34,53.2125 73.5858333,51.2666667 73.7163889,48.5986111 C73.8330556,46.2222222 74.3233333,43.9777778 75.0080556,43.1125 C75.4858333,41.7444444 75.9719444,44.2138889 77.4038889,41.4694444 C78.4122222,39.5402778 79.3288889,37.4375 79.7330556,35.1916667 C80.0691667,33.3291667 80.4094444,31.5638889 78.2955556,31.15 C79.9386111,25.1458333 78.8830556,20.4444444 75.2288889,15.7861111 C71.3941667,10.8972222 65.9330556,10.5680556 60.2969444,10.4069444 C60.6830556,10.0597222 62.5136111,9.85694444 62.8580556,9.54583333 C62.0872222,9.58055556 60.7761111,9.66805556 59.5886111,9.80416667 C62.6608333,14.4708333 63.4191667,19.3 61.7802778,25.2861111 C64.1483333,25.75 63.7691667,27.7236111 63.3927778,29.8111111 C62.94,32.325 61.9122222,34.6763889 60.7830556,36.8361111 C59.1788889,39.9111111 58.6344444,37.1347222 58.0997222,38.6666667 C57.3316667,39.6361111 56.7830556,42.1277778 56.6525,44.7916667 C56.5052778,47.7791667 56.2302778,49.3527778 58.0913889,51.0055556 C61.1469444,53.7194444 61.7163889,54.1 65.4219444,55.7319444 C69.0469444,57.3291667 75.7025,60.6263889 78.6997222,63.2208333 C87.2066667,70.5805556 89.0427778,80.5555556 80.6566667,80.5555556 L95.1469444,80.5555556 C102.634444,80.5555556 100.994167,71.6180556 93.3997222,65.0472222" id="Fill-3" sketch:type="MSShapeGroup"></path>
        </g>
    </g>
</svg>