<?xml version="1.0" encoding="UTF-8" standalone="no"?>
<svg width="100px" height="68px" viewBox="0 0 100 68" version="1.1" xmlns="http://www.w3.org/2000/svg" xmlns:xlink="http://www.w3.org/1999/xlink" xmlns:sketch="http://www.bohemiancoding.com/sketch/ns">
    <!-- Generator: Sketch 3.4.4 (17249) - http://www.bohemiancoding.com/sketch -->
    <title>t7-d3-tree-diagram__icon-partner</title>
    <desc>Created with Sketch.</desc>
    <defs></defs>
    <g id="t7-d3-tree-diagram__icon-partner" stroke="none" stroke-width="1" fill="none" fill-rule="evenodd" sketch:type="MSPage">
        <g sketch:type="MSLayerGroup">
            <path d="M47.0973611,3.84285205 C42.7015278,1.5654902 37.8084722,0.163707665 32.5584722,0.163707665 C14.6056944,0.163707665 0.000138888893,15.1612121 0.000138888893,33.5925847 C0.000138888893,52.0239572 14.6056944,67.0214617 32.5584722,67.0214617 C50.51125,67.0214617 65.1168056,52.0225312 65.1168056,33.5911586 C65.1168056,25.5041711 62.1904167,18.1772549 57.5168056,12.3890196 C55.5418056,13.3772549 53.6918056,14.5779679 52.0848611,16.0824242 C56.0918056,20.7868806 58.6015278,26.866025 58.6015278,33.5911586 C58.6015278,48.3433868 46.9195833,60.3391087 32.5584722,60.3391087 C18.1959722,60.3391087 6.50986111,48.3433868 6.50986111,33.5911586 C6.50986111,18.8460606 18.1959722,6.85176471 32.5584722,6.85176471 C35.81125,6.85176471 38.8931944,7.53910873 41.7654167,8.65996435 C43.3890278,6.87743316 45.1556944,5.26174688 47.0973611,3.84285205" id="Fill-1" fill="#999999" sketch:type="MSShapeGroup"></path>
            <path d="M100,33.5918717 C100,15.1604991 85.3930556,0.162994652 67.4416667,0.162994652 C49.4875,0.162994652 34.8833333,15.1590731 34.8833333,33.5918717 C34.8833333,41.6902674 37.8152778,49.0257398 42.5,54.8168271 C44.4763889,53.8357219 46.2833333,52.58082 47.8986111,51.0877718 C43.9013889,46.3861676 41.3944444,40.3113012 41.3944444,33.5932977 C41.3944444,18.8467736 53.0791667,6.85105169 67.4416667,6.85105169 C81.8041667,6.85105169 93.4861111,18.8467736 93.4861111,33.5932977 C93.4861111,48.3440998 81.8041667,60.3383957 67.4416667,60.3383957 C64.2416667,60.3383957 61.2125,59.6624599 58.3777778,58.5744029 C56.7416667,60.3583601 54.9555556,61.9811765 53.0013889,63.4000713 C57.3736111,65.6417825 62.2319444,67.0236007 67.4416667,67.0236007 C85.3930556,67.0207487 100,52.0232442 100,33.5918717" id="Fill-3" fill="#979797" sketch:type="MSShapeGroup"></path>
        </g>
    </g>
</svg>