<?xml version="1.0" encoding="UTF-8" standalone="no"?>
<svg width="100px" height="81px" viewBox="0 0 100 81" version="1.1" xmlns="http://www.w3.org/2000/svg" xmlns:xlink="http://www.w3.org/1999/xlink" xmlns:sketch="http://www.bohemiancoding.com/sketch/ns">
    <!-- Generator: Sketch 3.4.4 (17249) - http://www.bohemiancoding.com/sketch -->
    <title>t7-d3-tree-diagram__icon-electronic</title>
    <desc>Created with Sketch.</desc>
    <defs></defs>
    <g id="t7-d3-tree-diagram__icon-electronic" stroke="none" stroke-width="1" fill="none" fill-rule="evenodd" sketch:type="MSPage">
        <g sketch:type="MSLayerGroup" fill="#979797">
            <path d="M16.2103448,8.125 L83.6474138,8.125 L83.6474138,47.7043103 L16.2103448,47.7043103 L16.2103448,8.125 Z M86.3974138,0.734482759 L83.5844828,0.734482759 L18.7991379,0.734482759 L13.4508621,0.734482759 C10.9637931,0.734482759 8.94655172,2.75344828 8.94655172,5.24310345 L8.94655172,7.68534483 L8.94655172,49.6922414 L8.94655172,50.587069 C8.94655172,53.0767241 10.9637931,55.0956897 13.4508621,55.0956897 L16.2637931,55.0956897 L81.05,55.0956897 L86.3974138,55.0956897 C88.8844828,55.0956897 90.9043103,53.0767241 90.9043103,50.587069 L90.9043103,48.1448276 L90.9043103,6.13793103 L90.9043103,5.24310345 C90.9043103,2.75344828 88.8844828,0.734482759 86.3974138,0.734482759 L86.3974138,0.734482759 Z" id="Fill-1" sketch:type="MSShapeGroup"></path>
            <path d="M99.8538793,74.3889655 C99.8538793,77.582069 97.5133621,80.1725862 94.6228448,80.1725862 L5.23146552,80.1725862 C2.34008621,80.1725862 0.000431034482,77.582069 0.000431034482,74.3889655 C0.000431034482,74.3889655 9.60387931,58.482069 12.4918103,58.482069 L87.3607759,58.482069 C90.250431,58.482069 99.8538793,74.3889655 99.8538793,74.3889655" id="Fill-3" sketch:type="MSShapeGroup"></path>
        </g>
    </g>
</svg>