<?xml version="1.0" encoding="UTF-8" standalone="no"?>
<svg width="99px" height="86px" viewBox="0 0 99 86" version="1.1" xmlns="http://www.w3.org/2000/svg" xmlns:xlink="http://www.w3.org/1999/xlink" xmlns:sketch="http://www.bohemiancoding.com/sketch/ns">
    <!-- Generator: Sketch 3.4.4 (17249) - http://www.bohemiancoding.com/sketch -->
    <title>t7-d3-tree-diagram__icon-household</title>
    <desc>Created with Sketch.</desc>
    <defs></defs>
    <g id="t7-d3-tree-diagram__icon-household" stroke="none" stroke-width="1" fill="none" fill-rule="evenodd" sketch:type="MSPage">
        <g sketch:type="MSLayerGroup" fill="#53A7DB">
            <path d="M67.151272,0 L35.7142857,25.5123288 L35.7142857,80.8821918 L98.7279843,80.8821918 L98.7279843,25.5123288 L87.7690802,16.8520548 L87.7690802,4.17123288 L80.9197652,4.17123288 L80.9197652,11.2342466 L67.151272,0 Z M42.5636008,29.4027397 L66.5362035,9.84794521 L90.5088063,29.4027397 L90.5088063,71.2931507 L42.5636008,71.2931507 L42.5636008,29.4027397 Z" id="Fill-1" sketch:type="MSShapeGroup"></path>
            <path d="M76.6306362,68.2249185 C73.5539239,65.5632746 66.7237869,63.0605349 63.0032389,61.4208089 C59.2004992,59.7454664 58.6169376,59.3550554 55.4813211,56.5701239 C53.5703622,54.8742335 53.852554,52.679713 54.0032389,49.6125897 C54.1374855,46.879713 54.7004992,44.3221787 55.4881705,43.3276582 C56.0374855,41.7550554 56.5963896,44.6043705 58.242965,41.4482061 C59.4004992,39.2317678 60.4552937,36.819439 60.9210472,34.2386171 C61.3073485,32.0961513 61.6977595,30.0701239 59.2662526,29.5934116 C61.1566636,22.6920417 59.9415951,17.2879322 55.7415951,11.9345075 C51.3333759,6.31395956 45.0552937,5.93587736 38.5772116,5.75094586 C39.0210472,5.35094586 41.1265266,5.11806915 41.5210472,4.76190476 C40.0251568,4.82902805 36.7470746,5.06601435 35.3977595,5.4605349 C34.8539239,5.62080887 34.3237869,5.80574038 33.8073485,6.01532942 C30.4950198,7.36327462 27.8032389,9.73039791 26.0840609,12.8920417 C23.1799513,18.2358774 23.9950198,24.6427267 26.1443348,30.5221787 C23.9141979,31.3071102 23.9196773,33.0605349 24.312828,34.8851924 C24.5196773,35.849576 26.042965,41.6057404 26.582691,42.4180691 C28.7703622,45.7057404 29.6868006,43.8769733 29.6868006,43.8769733 C31.4580335,47.1934116 30.8689924,48.8016308 31.0909102,51.729028 C31.2004992,53.1769733 31.452554,55.3358774 30.6703622,56.1413568 C28.7539239,58.10985 26.4141979,59.7536856 24.0100883,61.0303979 C19.5566636,63.3934116 15.4594033,64.8112198 11.4210472,66.7002609 C3.65255402,70.3345075 -6.05977475,85.7139596 4.93885539,85.7139596 L78.6388554,85.7139596 C87.2470746,85.7139596 85.3621431,75.779713 76.6306362,68.2249185" id="Fill-2" sketch:type="MSShapeGroup"></path>
        </g>
    </g>
</svg>