<?xml version="1.0" encoding="UTF-8" standalone="no"?>
<svg width="100px" height="100px" viewBox="0 0 100 100" version="1.1" xmlns="http://www.w3.org/2000/svg" xmlns:xlink="http://www.w3.org/1999/xlink" xmlns:sketch="http://www.bohemiancoding.com/sketch/ns">
    <!-- Generator: Sketch 3.4.4 (17249) - http://www.bohemiancoding.com/sketch -->
    <title>t7-d3-tree-diagram__icon-check</title>
    <desc>Created with Sketch.</desc>
    <defs></defs>
    <g id="t7-d3-tree-diagram__icon-check" stroke="none" stroke-width="1" fill="none" fill-rule="evenodd" sketch:type="MSPage">
        <g sketch:type="MSLayerGroup" fill="#999999">
            <path d="M50,87.2340426 C29.4361198,87.2340426 12.7659574,70.5637345 12.7659574,49.9996746 C12.7659574,29.4362655 29.4361198,12.7659574 50,12.7659574 C70.5638802,12.7659574 87.2340426,29.4362655 87.2340426,49.9996746 C87.2340426,70.5637345 70.5638802,87.2340426 50,87.2340426 M50,0 C22.3860063,0 0,22.3860063 0,50 C0,77.6139937 22.3860063,100 50,100 C77.6139937,100 100,77.6139937 100,50 C100,22.3860063 77.6139937,0 50,0" id="Fill-1" sketch:type="MSShapeGroup"></path>
            <path d="M70.9695479,40.971337 L46.2760371,65.6500562 C44.4474419,67.4783501 41.4812564,67.4783501 39.650711,65.6500562 L26.9038488,52.9091736 C25.0746036,51.0808797 25.0746036,48.1162368 26.9038488,46.2879429 C28.7337441,44.4589993 31.6992796,44.4589993 33.5285249,46.2872932 L42.9646742,55.718535 L64.3442218,34.3494566 C66.1734671,32.5211627 69.1396526,32.5224621 70.9688979,34.3494566 C72.7974931,36.1777505 72.7974931,39.1417437 70.9695479,40.971337" id="Fill-3" sketch:type="MSShapeGroup"></path>
        </g>
    </g>
</svg>