<?xml version="1.0" encoding="utf-8"?>
<!-- Generator: Adobe Illustrator 16.0.4, SVG Export Plug-In . SVG Version: 6.00 Build 0)  -->
<!DOCTYPE svg PUBLIC "-//W3C//DTD SVG 1.1//EN" "http://www.w3.org/Graphics/SVG/1.1/DTD/svg11.dtd">
<svg version="1.1" id="Layer_1" xmlns="http://www.w3.org/2000/svg" xmlns:xlink="http://www.w3.org/1999/xlink" x="0px" y="0px"
	 width="384.94px" height="48.491px" viewBox="0 0 384.94 48.491" enable-background="new 0 0 384.94 48.491" xml:space="preserve">
<g>
	<path fill="#636466" d="M18.269,47.88c-10.051,0-12.836-2.853-12.836-11.41V19.423H0l1.291-3.463h4.143V6.859h1.902
		c3.056,0,4.55,1.427,4.55,4.21v4.891h8.896l-1.29,3.463h-7.606v17.93c0,4.754,1.766,7.063,5.229,6.996h3.328l1.223,3.531H18.269z"
		/>
	<path fill="#636466" d="M49.441,47.88c-2.92,0-4.346-1.426-4.346-4.279V32.396h-6.927c-6.316,0-8.286,1.697-8.286,6.248
		c0,4.347,2.241,5.705,7.674,5.705h3.192l1.223,3.531h-5.229c-8.761,0-13.108-3.057-13.108-9.236c0-6.791,4.347-9.712,13.787-9.712
		h7.539c-0.476-6.315-3.532-9.509-9.169-9.509h-6.723L27.98,15.96h7.81c10.527,0,15.756,4.618,15.756,13.787V47.88H49.441z"/>
	<path fill="#636466" d="M86.795,47.88c-2.988,0-4.482-1.426-4.482-4.211v-10.73c0-9.983-2.785-13.516-10.255-13.516h-6.384V47.88
		h-2.105c-2.92,0-4.415-1.426-4.415-4.211V15.96h13.854c10.595,0,15.892,4.957,15.892,14.941V47.88H86.795z"/>
	<path fill="#636466" d="M111.108,47.88c-9.983,0-15.009-4.822-15.009-14.533v-2.854c0-9.711,5.025-14.533,15.009-14.533h4.415
		l-1.222,3.531h-3.192c-5.772,0-8.693,3.668-8.693,11.002v2.854c0,7.334,3.124,11.002,9.372,11.002h7.606V0h1.834
		c2.988,0,4.482,1.426,4.482,4.21v43.67H111.108z"/>
	<path fill="#636466" d="M161.365,29.814c0,1.562-0.067,2.717-0.271,3.804h-17.998l1.155-3.668h11.409
		c0-7.334-2.648-11.002-7.878-11.002h-0.883c-5.162,0-7.878,4.686-7.878,11.545v4.211c0,5.434,3.871,9.645,9.304,9.645h8.829
		l1.291,3.531h-10.052c-10.119,0-15.756-5.094-15.756-14.533v-2.854c0-9.032,5.229-14.873,14.262-14.873h0.883
		C156.815,15.62,161.365,20.374,161.365,29.814z"/>
	<path fill="#636466" d="M213.252,47.88c-2.988,0-4.482-1.426-4.482-4.211v-13.65c0-8.762-2.105-10.596-8.354-10.596h-8.761
		c2.241,1.971,3.396,5.773,3.396,11.41V47.88h-2.037c-2.988,0-4.482-1.426-4.482-4.211v-13.65c0-8.625-2.105-10.596-8.354-10.596
		h-5.977V47.88h-2.105c-2.92,0-4.414-1.426-4.414-4.211V15.892h13.446c4.687,0,7.879,0.815,9.509,2.445l1.833-2.445h8.829
		c10.392,0,13.99,4.347,13.99,14.941V47.88H213.252z"/>
	<path fill="#9D9FA2" d="M245.986,39.458c0,5.773-3.735,8.422-14.263,8.422h-9.779l1.223-3.531h9.168
		c4.822,0,7.199-1.562,7.199-4.687c0-1.833-1.223-2.853-6.452-5.569l-4.074-2.037c-5.909-2.853-6.792-4.551-6.792-8.285
		c0-5.705,3.464-7.811,13.312-7.811h9.032l-1.29,3.463h-8.422c-4.007,0-5.977,1.291-5.977,3.804c0,2.105,0.476,2.513,4.891,4.89
		l3.396,1.834c3.396,1.834,5.501,3.057,6.248,3.735C245.104,35.18,245.986,37.081,245.986,39.458z"/>
	<path fill="#9D9FA2" d="M280.352,29.814c0,1.562-0.068,2.717-0.272,3.804h-17.997l1.154-3.668h11.41
		c0-7.334-2.648-11.002-7.878-11.002h-0.884c-5.161,0-7.878,4.686-7.878,11.545v4.211c0,5.434,3.871,9.645,9.305,9.645h8.829
		l1.29,3.531h-10.052c-10.119,0-15.756-5.094-15.756-14.533v-2.854c0-9.032,5.229-14.873,14.262-14.873h0.884
		C275.801,15.62,280.352,20.374,280.352,29.814z"/>
	<path fill="#9D9FA2" d="M302.967,47.472c-0.271,0.68-1.154,1.02-2.717,1.02c-1.562,0-2.444-0.34-2.716-1.02l-14.33-31.512h4.143
		c2.309,0,3.803,0.883,4.482,2.717l8.965,22.547l8.829-22.547c1.019-2.242,1.833-2.717,4.21-2.717h2.853L302.967,47.472z"/>
	<path fill="#9D9FA2" d="M348.878,29.814c0,1.562-0.068,2.717-0.272,3.804h-17.997l1.154-3.668h11.41
		c0-7.334-2.648-11.002-7.878-11.002h-0.883c-5.162,0-7.879,4.686-7.879,11.545v4.211c0,5.434,3.871,9.645,9.305,9.645h8.829
		l1.29,3.531h-10.052c-10.119,0-15.756-5.094-15.756-14.533v-2.854c0-9.032,5.229-14.873,14.263-14.873h0.883
		C344.327,15.62,348.878,20.374,348.878,29.814z"/>
	<path fill="#9D9FA2" d="M382.835,47.88c-2.988,0-4.482-1.426-4.482-4.211v-10.73c0-9.983-2.784-13.516-10.255-13.516h-6.384V47.88
		h-2.105c-2.921,0-4.414-1.426-4.414-4.211V15.96h13.854c10.595,0,15.892,4.957,15.892,14.941V47.88H382.835z"/>
</g>
<g>
</g>
<g>
</g>
<g>
</g>
<g>
</g>
<g>
</g>
<g>
</g>
</svg>
