<?xml version="1.0" encoding="UTF-8" standalone="no"?>
<svg width="66px" height="100px" viewBox="0 0 66 100" version="1.1" xmlns="http://www.w3.org/2000/svg" xmlns:xlink="http://www.w3.org/1999/xlink" xmlns:sketch="http://www.bohemiancoding.com/sketch/ns">
    <!-- Generator: Sketch 3.4.4 (17249) - http://www.bohemiancoding.com/sketch -->
    <title>t7-d3-tree-diagram__icon-alert--good</title>
    <desc>Created with Sketch.</desc>
    <defs></defs>
    <g id="t7-d3-tree-diagram__icon-alert--good" stroke="none" stroke-width="1" fill="none" fill-rule="evenodd" sketch:type="MSPage">
        <path d="M32.7363964,6.95945946 C33.7700901,6.95945946 34.4592793,7.64864865 34.4592793,8.68234234 C34.4592793,9.71603604 33.7700901,10.4052252 32.7363964,10.4052252 C31.7027027,10.4052252 31.0135135,9.71603604 31.0135135,8.68234234 C31.0135135,7.64864865 31.7027027,6.95945946 32.7363964,6.95945946 M17.2297297,20.7432432 L48.2432432,20.7432432 C49.9661261,20.7432432 51.6891892,19.3648649 51.6891892,17.2972973 L51.6891892,13.8513514 C51.6891892,11.7837838 50.3108108,10.4054054 48.2432432,10.4054054 L41.3513514,10.4054054 L41.3513514,6.95945946 C41.3513514,3.16882883 38.2499099,0.0675675676 34.4594595,0.0675675676 L31.0135135,0.0675675676 C27.2228829,0.0675675676 24.1216216,3.16882883 24.1216216,6.95945946 L24.1216216,10.4054054 L17.2297297,10.4054054 C15.5068468,10.4054054 13.7837838,11.7837838 13.7837838,13.8513514 L13.7837838,17.2972973 C13.7837838,19.3648649 15.1621622,20.7432432 17.2297297,20.7432432 Z M32.7695135,83.8586306 C29.1914955,83.8586306 26.8060901,81.2744865 26.8060901,77.8289009 C26.8060901,74.317009 29.2578018,71.798991 32.7695135,71.798991 C36.2814054,71.798991 38.6005045,74.317009 38.6668108,77.8289009 C38.6668108,81.2744865 36.3475315,83.8586306 32.7695135,83.8586306 Z M38.0042883,38.4696216 L36.5464505,68.486018 L28.9927568,68.486018 L27.4686126,38.4696216 L38.0042883,38.4696216 L38.0042883,38.4696216 L38.0042883,38.4696216 Z M58.581045,13.8514234 L55.1350991,13.8514234 L55.1350991,17.2973694 C55.1350991,21.088 52.0336577,24.1892613 48.2432072,24.1892613 L17.2296937,24.1892613 C13.4390631,24.1892613 10.3378018,21.088 10.3378018,17.2973694 L10.3378018,13.8514234 L6.89185586,13.8514234 C3.10122523,13.8514234 -3.60360355e-05,16.9526847 -3.60360355e-05,20.7433153 L-3.60360355e-05,93.1081802 C-3.60360355e-05,96.8986306 3.10122523,100.000072 6.89185586,100.000072 L58.581045,100.000072 C62.3714955,100.000072 65.4729369,96.8986306 65.4729369,93.1081802 L65.4729369,20.7433153 C65.4729369,16.9526847 62.3714955,13.8514234 58.581045,13.8514234 L58.581045,13.8514234 L58.581045,13.8514234 L58.581045,13.8514234 Z" fill="#1DBF5B" sketch:type="MSShapeGroup"></path>
    </g>
</svg>