<?xml version="1.0" encoding="UTF-8" standalone="no"?>
<svg width="100px" height="100px" viewBox="0 0 100 100" version="1.1" xmlns="http://www.w3.org/2000/svg" xmlns:xlink="http://www.w3.org/1999/xlink" xmlns:sketch="http://www.bohemiancoding.com/sketch/ns">
    <!-- Generator: Sketch 3.4.4 (17249) - http://www.bohemiancoding.com/sketch -->
    <title>t7-d3-tree-diagram__icon-check</title>
    <desc>Created with Sketch.</desc>
    <defs></defs>
    <g id="t7-d3-tree-diagram__icon-check" stroke="none" stroke-width="1" fill="none" fill-rule="evenodd" sketch:type="MSPage">
        <g sketch:type="MSLayerGroup" fill="#999999">
            <path d="M50,87 C29.5653785,87 13,70.4344767 13,49.9996766 C13,29.5655233 29.5653785,13 50,13 C70.4346215,13 87,29.5655233 87,49.9996766 C87,70.4344767 70.4346215,87 50,87 M50,0 C22.3860063,0 0,22.3860063 0,50 C0,77.6139937 22.3860063,100 50,100 C77.6139937,100 100,77.6139937 100,50 C100,22.3860063 77.6139937,0 50,0" id="Fill-1" sketch:type="MSShapeGroup"></path>
            <path d="M71.6235142,40.9826228 L46.8289845,65.6304936 C44.9929087,67.4565021 42.0145888,67.4565021 40.1765548,65.6304936 L27.3775464,52.9055372 C25.5408179,51.0795286 25.5408179,48.1185915 27.3775464,46.292583 C29.2149276,44.4659255 32.1925949,44.4659255 34.0293234,46.2919341 L43.5040751,55.7113868 L64.9710846,34.3690198 C66.8078131,32.5430112 69.786133,32.544309 71.6228615,34.3690198 C73.4589374,36.1950283 73.4589374,39.1553165 71.6235142,40.9826228" id="Fill-3" sketch:type="MSShapeGroup"></path>
        </g>
    </g>
</svg>