<?xml version="1.0" encoding="UTF-8" standalone="no"?>
<svg width="100px" height="92px" viewBox="0 0 100 92" version="1.1" xmlns="http://www.w3.org/2000/svg" xmlns:xlink="http://www.w3.org/1999/xlink" xmlns:sketch="http://www.bohemiancoding.com/sketch/ns">
    <!-- Generator: Sketch 3.4.4 (17249) - http://www.bohemiancoding.com/sketch -->
    <title>t7-d3-tree-diagram__icon-alert--negative</title>
    <desc>Created with Sketch.</desc>
    <defs></defs>
    <g id="t7-d3-tree-diagram__icon-alert--negative" stroke="none" stroke-width="1" fill="none" fill-rule="evenodd" sketch:type="MSPage">
        <g sketch:type="MSLayerGroup">
            <path d="M50,0 L50,92 L87,92 C94.1386492,92 99.968761,85.2789494 100,78 C99.968761,75.8900596 99.1003163,73.1859592 99,73 L62,8 C59.6822528,3.83024883 54.8871707,0 50,0 C45.1128293,0 40.3177472,3.83024883 38,8 L1,73 C0.899683705,73.1859592 0.0312390175,75.8900596 0,78 C0.0312390175,85.2789494 5.86135083,92 13,92 L50,92 L50,0" id="Path" fill="#D0021B" sketch:type="MSShapeGroup"></path>
            <path d="M50,77 C46.4130965,77 44,74.4292566 44,71 C44,67.5049675 46.4813654,65 50,65 C53.5869035,65 55.9331243,67.5049675 56,71 C56,74.4292566 53.6537792,77 50,77 L50,77" id="Path" fill="#FFFFFF" sketch:type="MSShapeGroup"></path>
            <path d="M44,30 L56,30 L54.0039673,59.984375 L46,60 L44,30 Z" id="Rectangle-1" fill="#FFFFFF" sketch:type="MSShapeGroup"></path>
        </g>
    </g>
</svg>