<?xml version="1.0" encoding="UTF-8" standalone="no"?>
<svg width="100px" height="100px" viewBox="0 0 100 100" version="1.1" xmlns="http://www.w3.org/2000/svg" xmlns:xlink="http://www.w3.org/1999/xlink" xmlns:sketch="http://www.bohemiancoding.com/sketch/ns">
    <!-- Generator: Sketch 3.4.4 (17249) - http://www.bohemiancoding.com/sketch -->
    <title>t7-d3-tree-diagram__icon-time</title>
    <desc>Created with Sketch.</desc>
    <defs></defs>
    <g id="t7-d3-tree-diagram__icon-time" stroke="none" stroke-width="1" fill="none" fill-rule="evenodd" sketch:type="MSPage">
        <path d="M50,0 C22.3860063,0 0,22.3860063 0,50 C0,77.6139937 22.3860063,100 50,100 C77.6139937,100 100,77.6139937 100,50 C100,22.3860063 77.6139937,0 50,0 Z M50,87 C29.5653785,87 13,70.4344767 13,50 C13,29.5655233 29.5653785,13 50,13 C70.4346215,13 87,29.5655233 87,50 C87,70.4344767 70.4346215,87 50,87 Z M53.5928105,22 L46,22 L46,51.7679739 L64.4640523,70.2287582 L69.8313725,64.8620915 L53.5928105,48.6222222 L53.5928105,22 Z" fill="#999999" sketch:type="MSShapeGroup"></path>
    </g>
</svg>