<?xml version="1.0" encoding="UTF-8" standalone="no"?>
<svg width="100px" height="100px" viewBox="0 0 100 100" version="1.1" xmlns="http://www.w3.org/2000/svg" xmlns:xlink="http://www.w3.org/1999/xlink" xmlns:sketch="http://www.bohemiancoding.com/sketch/ns">
    <!-- Generator: Sketch 3.4.4 (17249) - http://www.bohemiancoding.com/sketch -->
    <title>t7-d3-tree-diagram__icon-manual</title>
    <desc>Created with Sketch.</desc>
    <defs></defs>
    <g id="t7-d3-tree-diagram__icon-manual" stroke="none" stroke-width="1" fill="none" fill-rule="evenodd" sketch:type="MSPage">
        <path d="M89.1499976,0 C83.1555533,0 78.2972201,5.13588059 78.2972201,11.4706225 C78.2972201,15.244761 81.7111089,18.5845508 84.3749977,20.6755879 L84.3749977,43.1854188 L54.7777763,43.1854188 L54.7777763,20.6755879 C57.443054,18.5845508 60.8555539,15.244761 60.8555539,11.4706225 C60.8555539,5.13588059 55.9958318,0 50.0041653,0 C44.009721,0 39.1486101,5.13588059 39.1486101,11.4706225 C39.1486101,15.244761 42.5638877,18.5845508 45.2263877,20.6755879 L45.2263877,43.1854188 L15.6291662,43.1854188 L15.6291662,20.6755879 C18.2972217,18.5845508 21.7083328,15.244761 21.7083328,11.4706225 C21.7083328,5.13588059 16.8499995,0 10.8555553,0 C4.86111098,0 0,5.13588059 0,11.4706225 C0,15.244761 3.41805546,18.5845508 6.08055539,20.6755879 L6.08055539,79.3244095 C3.41527769,81.4169139 0,84.7537689 0,88.5308423 C0,94.8670515 4.86111098,99.9999973 10.8555553,99.9999973 C16.8499995,99.9999973 21.7083328,94.8670515 21.7083328,88.5308423 C21.7083328,84.7537689 18.294444,81.4169139 15.6291662,79.3244095 L15.6291662,56.8160459 L45.2263877,56.8160459 L45.2263877,79.3244095 C42.5624989,81.4169139 39.1486101,84.7537689 39.1486101,88.5308423 C39.1486101,94.8670515 44.009721,99.9999973 50.0041653,99.9999973 C55.9958318,99.9999973 60.8555539,94.8670515 60.8555539,88.5308423 C60.8555539,84.7537689 57.443054,81.4169139 54.7777763,79.3244095 L54.7777763,56.8160459 L87.4694421,56.8160459 C91.031942,56.8160459 93.9208308,53.7653328 93.9208308,50.0014661 L93.9208308,20.6755879 C96.5861085,18.5845508 99.9999973,15.244761 99.9999973,11.4706225 C100.004164,5.13588059 95.1444419,0 89.1499976,0" fill="#999999" sketch:type="MSShapeGroup"></path>
    </g>
</svg>