<?xml version="1.0" encoding="UTF-8" standalone="no"?>
<svg width="100px" height="83px" viewBox="0 0 100 83" version="1.1" xmlns="http://www.w3.org/2000/svg" xmlns:xlink="http://www.w3.org/1999/xlink" xmlns:sketch="http://www.bohemiancoding.com/sketch/ns">
    <!-- Generator: Sketch 3.4.4 (17249) - http://www.bohemiancoding.com/sketch -->
    <title>t7-d3-tree-diagram__icon-briefcase</title>
    <desc>Created with Sketch.</desc>
    <defs></defs>
    <g id="t7-d3-tree-diagram__icon-briefcase" stroke="none" stroke-width="1" fill="none" fill-rule="evenodd" sketch:type="MSPage">
        <path d="M82.9236111,15.1958333 L91.6819444,15.1958333 C92.5333333,15.1958333 93.4486111,15.4555556 94.425,15.9680556 C95.4,16.4805556 96.2944444,17.1402778 97.1277778,17.9416667 C97.9555556,18.7402778 98.6416667,19.6152778 99.1805556,20.5583333 C99.7263889,21.5069444 100,22.3791667 100,23.1777778 L100,74.3361111 C100,75.3680556 99.7263889,76.3597222 99.1805556,77.3361111 C98.6416667,78.3083333 97.9388889,79.1805556 97.0805556,79.9527778 C96.2180556,80.725 95.2805556,81.3402778 94.2444444,81.8 C93.2097222,82.2625 92.2166667,82.4888889 91.2430556,82.4888889 L82.9208333,82.4888889 L82.9208333,15.1958333 L82.9236111,15.1958333 Z M41.0319444,15.1958333 L59.1444444,15.1958333 L59.1444444,5.15277778 L41.0319444,5.15277778 L41.0319444,15.1958333 Z M22.4083333,15.2791667 L35.8805556,15.2791667 L35.8805556,4.71944444 C35.8805556,4.26388889 36.0402778,3.76527778 36.3555556,3.21944444 C36.6680556,2.67916667 37.075,2.16388889 37.5541667,1.67777778 C38.0402778,1.19166667 38.5722222,0.786111111 39.1486111,0.476388889 C39.7180556,0.163888889 40.2333333,0 40.6930556,0 L59.3180556,0 C59.8333333,0 60.3930556,0.1625 60.9958333,0.476388889 C61.6013889,0.795833333 62.1277778,1.19166667 62.5833333,1.67777778 C63.0458333,2.16388889 63.4319444,2.70694444 63.7486111,3.30138889 C64.0611111,3.90694444 64.2180556,4.45972222 64.2180556,4.97916667 L64.2180556,15.2791667 L77.6097222,15.2791667 L77.6097222,82.4888889 L22.4180556,82.4888889 L22.4180556,15.2791667 L22.4083333,15.2791667 Z M17.1694444,15.1958333 L17.1694444,82.4930556 L8.92638889,82.4930556 C7.95416667,82.4930556 6.93888889,82.2694444 5.88472222,81.8027778 C4.82222222,81.3472222 3.86388889,80.7388889 3.00833333,79.9583333 C2.15,79.1902778 1.43055556,78.3138889 0.861111111,77.3430556 C0.286111111,76.3666667 0,75.3694444 0,74.3402778 L0,23.1777778 C0,22.3194444 0.286111111,21.4166667 0.861111111,20.475 C1.43055556,19.5333333 2.15,18.675 3.00833333,17.9027778 C3.86388889,17.1333333 4.79583333,16.4847222 5.79722222,15.975 C6.80277778,15.4625 7.725,15.2027778 8.59027778,15.2027778 L17.1694444,15.1958333 Z" fill="#979797" sketch:type="MSShapeGroup"></path>
    </g>
</svg>