<?xml version="1.0" encoding="UTF-8" standalone="no"?>
<svg width="100px" height="100px" viewBox="0 0 100 100" version="1.1" xmlns="http://www.w3.org/2000/svg" xmlns:xlink="http://www.w3.org/1999/xlink" xmlns:sketch="http://www.bohemiancoding.com/sketch/ns">
    <!-- Generator: Sketch 3.4.4 (17249) - http://www.bohemiancoding.com/sketch -->
    <title>t7-d3-tree-diagram__icon-firm--inactive</title>
    <desc>Created with Sketch.</desc>
    <defs></defs>
    <g id="t7-d3-tree-diagram__icon-firm--inactive" stroke="none" stroke-width="1" fill="none" fill-rule="evenodd" sketch:type="MSPage">
        <path d="M9.24305556,33.3333333 L25.9097222,33.3333333 L25.9097222,83.3333333 L9.24305556,83.3333333 L9.24305556,33.3333333 L9.24305556,33.3333333 Z M41.6666667,33.3333333 L58.3333333,33.3333333 L58.3333333,83.3333333 L41.6666667,83.3333333 L41.6666667,33.3333333 L41.6666667,33.3333333 Z M74.0902778,33.3333333 L90.7569444,33.3333333 L90.7569444,83.3333333 L74.0902778,83.3333333 L74.0902778,33.3333333 L74.0902778,33.3333333 Z M0,100 L100,100 L100,88.8888889 L0,88.8888889 L0,100 L0,100 Z M50,0 L0,27.7777778 L100,27.7777778 L50,0 L50,0 Z" fill="#CCCCCC" sketch:type="MSShapeGroup"></path>
    </g>
</svg>